<mxfile host="app.diagrams.net" modified="2023-11-27T06:43:51.240Z" agent="Mozilla/5.0 (Windows NT 10.0; Win64; x64) AppleWebKit/537.36 (KHTML, like Gecko) Chrome/119.0.0.0 Safari/537.36" etag="9hoH-zQyol2gqoUlyadA" version="22.1.4" type="github">
  <diagram name="Page-1" id="L3AqF6T2z5KS2IPmQw02">
    <mxGraphModel dx="1050" dy="557" grid="1" gridSize="10" guides="1" tooltips="1" connect="1" arrows="1" fold="1" page="1" pageScale="1" pageWidth="827" pageHeight="1169" math="0" shadow="0">
      <root>
        <mxCell id="0" />
        <mxCell id="1" parent="0" />
        <mxCell id="gdmdKSeBfdveT7StTMN8-1" value="" style="ellipse;whiteSpace=wrap;html=1;aspect=fixed;fillColor=#e51400;fontColor=#ffffff;strokeColor=#B20000;" vertex="1" parent="1">
          <mxGeometry x="190" y="80" width="400" height="400" as="geometry" />
        </mxCell>
        <mxCell id="gdmdKSeBfdveT7StTMN8-2" value="&lt;b&gt;&lt;font style=&quot;font-size: 33px;&quot;&gt;MRIGANKA&lt;/font&gt;&lt;/b&gt;" style="text;html=1;strokeColor=none;fillColor=none;align=center;verticalAlign=middle;whiteSpace=wrap;rounded=0;" vertex="1" parent="1">
          <mxGeometry x="100" y="80" width="570" height="400" as="geometry" />
        </mxCell>
      </root>
    </mxGraphModel>
  </diagram>
</mxfile>
